<svg width="20" height="20" viewBox="0 0 20 20" fill="none" xmlns="http://www.w3.org/2000/svg">
<path d="M9.75278 8.04385L9.99989 8.29097L10.2474 8.04423L17.4474 0.866048L17.4474 0.866061L17.4499 0.863517C17.5577 0.753811 17.6871 0.667671 17.8299 0.610544C17.9711 0.554095 18.1222 0.527188 18.2741 0.531463C18.5839 0.552853 18.8755 0.685552 19.0951 0.905174C19.3138 1.12384 19.4463 1.41388 19.4685 1.72211C19.4687 1.86651 19.4402 2.00955 19.3847 2.1429L19.7078 2.27752L19.3847 2.1429C19.3279 2.27917 19.244 2.40248 19.1382 2.50537L19.1381 2.50533L19.1342 2.50925L11.9124 9.75289L11.666 10L11.9124 10.2471L19.1342 17.4908L19.1342 17.4908L19.1385 17.495C19.3506 17.7006 19.4693 17.984 19.4685 18.2777C19.4463 18.586 19.3138 18.8761 19.0951 19.0948C18.8755 19.3145 18.5839 19.4472 18.2741 19.4685C18.1223 19.4728 17.9711 19.4459 17.8299 19.3895C17.6871 19.3323 17.5577 19.2462 17.4499 19.1365L17.4474 19.134L10.2474 11.9558L9.99989 11.709L9.75278 11.9562L2.57459 19.1343L2.57246 19.1365C2.46465 19.2462 2.33524 19.3323 2.19242 19.3895C2.05061 19.4462 1.89865 19.4731 1.74602 19.4685C1.42965 19.4512 1.13074 19.3177 0.906642 19.0936C0.683497 18.8705 0.550225 18.5732 0.53202 18.2583C0.531518 18.1131 0.560013 17.9693 0.61586 17.8353C0.672637 17.699 0.756504 17.5757 0.862373 17.4728L0.862398 17.4729L0.865938 17.4693L8.08776 10.2475L8.33524 10L8.08776 9.75252L0.845767 2.51054C0.845515 2.51028 0.845263 2.51003 0.845011 2.50977C0.742484 2.40566 0.661933 2.282 0.608152 2.14613C0.555083 2.01206 0.52915 1.86881 0.531829 1.7247C0.553531 1.41551 0.686159 1.12445 0.905439 0.905173C1.12566 0.684953 1.41827 0.55213 1.72894 0.531291C1.88048 0.524499 2.03183 0.548792 2.17365 0.602685C2.31581 0.656705 2.44537 0.739314 2.55432 0.845396L9.75278 8.04385Z" fill="black" stroke="white" stroke-width="0.7"/>
</svg>
